<svg xmlns="http://www.w3.org/2000/svg" width="512" height="512" viewBox="0 0 512 512">
  <defs>
    <linearGradient id="accentGrad" x1="0" y1="0" x2="1" y2="1">
      <stop offset="0%" stop-color="#FFC107"/>
      <stop offset="100%" stop-color="#FF8F00"/>
    </linearGradient>
    <filter id="softGlow" x="-20%" y="-20%" width="140%" height="140%">
      <feDropShadow dx="0" dy="2" stdDeviation="4" flood-color="#000000" flood-opacity="0.6"/>
    </filter>
  </defs>
  <rect x="40" y="40" width="432" height="432" rx="36" fill="#1e1e1e" stroke="#2a2a2a" stroke-width="3" filter="url(#softGlow)"/>
  <rect x="86" y="96" width="340" height="320" rx="22" fill="#f2f2f2" stroke="#d9d9d9" stroke-width="3"/>
  <g stroke="#c9c9c9" stroke-width="2" opacity="0.55">
    <line x1="110" y1="160" x2="392" y2="160"/>
    <line x1="110" y1="200" x2="392" y2="200"/>
    <line x1="110" y1="240" x2="392" y2="240"/>
    <line x1="110" y1="280" x2="392" y2="280"/>
    <line x1="110" y1="320" x2="392" y2="320"/>
  </g>
  <path d="M180 320 L220 180 L260 180 L232 280 L276 280 L264 320 Z" fill="url(#accentGrad)" filter="url(#softGlow)"/>
  <path d="M180 320 L220 180 L260 180 L232 280 L276 280 L264 320 Z" fill="none" stroke="#2b2b2b" stroke-width="2" opacity="0.35"/>
  <g transform="translate(280,180) rotate(20)" filter="url(#softGlow)">
    <rect x="0" y="0" width="150" height="24" rx="8" fill="url(#accentGrad)"/>
    <rect x="120" y="0" width="30" height="24" rx="8" fill="#ff7043"/>
    <polygon points="150,12 172,0 172,24" fill="#ffd54f" stroke="#d9a600" stroke-width="2"/>
  </g>
  <rect x="86" y="96" width="340" height="320" rx="22" fill="none" stroke="#000000" stroke-opacity="0.12" stroke-width="8"/>
</svg>
